HIERARCHY
ROOT root
{
	OFFSET 0.000000 0.000000 0.000000
	CHANNELS 6 Xposition Yposition Zposition Zrotation Yrotation Xrotation
	JOINT lhip
	{
		OFFSET 0.058581 -0.082280 -0.017664
		CHANNELS 3 Zrotation Yrotation Xrotation
		JOINT lknee
		{
			OFFSET 0.043451 -0.386469 0.008037
			CHANNELS 3 Zrotation Yrotation Xrotation
			JOINT lankle
			{
				OFFSET -0.014790 -0.426874 -0.037428
				CHANNELS 3 Zrotation Yrotation Xrotation
				JOINT ltoe
				{
					OFFSET 0.041054 -0.060286 0.122042
					CHANNELS 3 Zrotation Yrotation Xrotation
					End Site
					{
						OFFSET 0.000000 0.000000 0.000000
					}
				}
			}
		}
	}
	JOINT rhip
	{
		OFFSET -0.060310 -0.090513 -0.013543
		CHANNELS 3 Zrotation Yrotation Xrotation
		JOINT rknee
		{
			OFFSET -0.043257 -0.383688 -0.004843
			CHANNELS 3 Zrotation Yrotation Xrotation
			JOINT rankle
			{
				OFFSET 0.019056 -0.420046 -0.034562
				CHANNELS 3 Zrotation Yrotation Xrotation
				JOINT rtoe
				{
					OFFSET -0.034840 -0.062106 0.130323
					CHANNELS 3 Zrotation Yrotation Xrotation
					End Site
					{
						OFFSET 0.000000 0.000000 0.000000
					}
				}
			}
		}
	}
	JOINT lowerback
	{
		OFFSET 0.004439 0.124404 -0.038385
		CHANNELS 3 Zrotation Yrotation Xrotation
		JOINT upperback
		{
			OFFSET 0.004488 0.137956 0.026820
			CHANNELS 3 Zrotation Yrotation Xrotation
			JOINT chest
			{
				OFFSET -0.002265 0.056032 0.002855
				CHANNELS 3 Zrotation Yrotation Xrotation
				JOINT lowerneck
				{
					OFFSET -0.013390 0.211636 -0.033468
					CHANNELS 3 Zrotation Yrotation Xrotation
					JOINT upperneck
					{
						OFFSET 0.010113 0.088937 0.050410
						CHANNELS 3 Zrotation Yrotation Xrotation
						End Site
						{
							OFFSET 0.000000 0.000000 0.000000
						}
					}
				}
				JOINT lclavicle
				{
					OFFSET 0.071702 0.114000 -0.018898
					CHANNELS 3 Zrotation Yrotation Xrotation
					JOINT lshoulder
					{
						OFFSET 0.122921 0.045205 -0.019046
						CHANNELS 3 Zrotation Yrotation Xrotation
						JOINT lelbow
						{
							OFFSET 0.255332 -0.015649 -0.022946
							CHANNELS 3 Zrotation Yrotation Xrotation
							JOINT lwrist
							{
								OFFSET 0.265709 0.012698 -0.007375
								CHANNELS 3 Zrotation Yrotation Xrotation
								End Site
								{
									OFFSET 0.000000 0.000000 0.000000
								}
							}
						}
					}
				}
				JOINT rclavicle
				{
					OFFSET -0.082954 0.112472 -0.023707
					CHANNELS 3 Zrotation Yrotation Xrotation
					JOINT rshoulder
					{
						OFFSET -0.113228 0.046853 -0.008472
						CHANNELS 3 Zrotation Yrotation Xrotation
						JOINT relbow
						{
							OFFSET -0.260127 -0.014369 -0.031269
							CHANNELS 3 Zrotation Yrotation Xrotation
							JOINT rwrist
							{
								OFFSET -0.269108 0.006794 -0.006027
								CHANNELS 3 Zrotation Yrotation Xrotation
								End Site
								{
									OFFSET 0.000000 0.000000 0.000000
								}
							}
						}
					}
				}
			}
		}
	}
}
MOTION
Frames: 5
Frame Time: 0.033333
0.152995 0.658155 0.867846 69.489321 -2.590806 89.283208 16.290605 4.718005 -46.896954 -6.425530 21.390949 34.208439 -2.595406 11.614590 -5.247380 0.000000 -0.000000 0.000000 -22.786696 -2.366158 29.914162 5.584701 20.593919 23.054142 17.960376 9.977129 18.232233 0.000000 -0.000000 0.000000 -4.889071 20.018420 9.115366 -4.279534 7.688037 1.967006 -2.484013 14.404876 -1.644019 2.821030 -3.525448 -3.756125 0.401443 -11.448463 -0.996845 -12.654414 24.668516 2.311601 -38.102338 42.330620 -8.588008 14.047650 -27.787811 -2.925150 0.406033 -19.736256 -29.896857 14.892600 16.844580 -0.702474 15.472889 43.289508 -16.584891 -19.546842 36.172549 -29.432359 -14.808064 10.751454 -14.266769 
0.211021 0.663479 0.864235 70.339957 -3.755760 92.047187 16.357377 4.090997 -51.036194 -7.207937 25.579083 42.955070 1.490898 9.288605 -8.364808 0.000000 -0.000000 0.000000 -23.252528 -2.870967 26.795372 4.946043 20.192067 26.166355 19.799493 6.704111 26.258791 0.000000 -0.000000 0.000000 -6.767714 20.070106 10.167967 -5.793356 7.635415 0.226844 -3.103005 13.827811 -1.055709 1.136522 -5.409164 -6.985350 1.514259 -10.215104 -1.309827 -15.776677 22.972002 0.281773 -37.556664 37.234175 -7.225942 14.597722 -29.087595 -4.488163 0.100312 -18.737168 -30.790635 16.321536 15.794356 -0.135005 15.764311 40.810286 -13.652820 -21.586642 39.791311 -31.442287 -14.101010 10.428265 -14.729295 
0.270681 0.669687 0.866952 72.696729 -3.275617 93.053062 13.827850 3.000197 -51.136494 -5.360356 25.623309 48.385755 5.222537 7.295042 -14.864568 0.000000 -0.000000 0.000000 -18.981240 -1.967708 25.758388 4.756459 20.753428 29.798169 15.465237 2.287144 24.644593 0.000000 -0.000000 0.000000 -5.947930 18.529625 11.451434 -6.194527 7.109598 -0.578248 -3.745851 12.849952 0.210381 0.592632 -5.777149 -8.938502 0.953637 -8.780409 -0.597949 -18.601858 20.442365 1.364211 -40.186416 30.351290 -6.006088 14.332900 -29.153140 -4.552015 4.121879 -18.958576 -32.488469 18.542484 15.035253 0.993078 16.716750 39.606692 -11.267393 -21.721207 40.110598 -29.702157 -18.866763 14.973773 -10.901982 
0.323346 0.675131 0.879908 74.477427 -3.711861 93.432932 11.571503 -0.219557 -48.452631 -5.783771 24.672810 49.104061 6.564613 8.888474 -19.790284 0.000000 -0.000000 0.000000 -15.778668 -1.441456 21.333462 2.984671 16.347670 36.951812 10.938941 -1.965284 14.007594 0.000000 -0.000000 0.000000 -7.013912 17.373785 13.691881 -6.188422 6.161357 -1.665276 -3.207725 11.110199 0.706173 0.280636 -5.411963 -11.290827 0.765087 -6.652796 1.628075 -20.956735 15.926585 0.476966 -43.483423 25.178147 -3.749317 15.782856 -28.468594 -5.609901 1.733854 -20.737797 -28.081673 19.004162 15.613539 0.264474 25.608469 34.486205 -2.297901 -22.913392 43.715433 -28.428763 2.213189 11.487771 -18.132332 
0.376502 0.679224 0.897941 76.434954 -3.357019 94.228035 9.639978 -2.847356 -45.201113 -5.705136 23.179758 48.258845 7.572235 9.974902 -23.120204 0.000000 -0.000000 0.000000 -11.698741 -0.181706 15.915658 2.073760 12.204419 42.751325 9.019984 -3.167873 3.653159 0.000000 -0.000000 0.000000 -7.661291 16.131341 13.700100 -5.166747 5.394103 -2.966848 -2.762838 9.828442 1.437685 0.746362 -3.017158 -9.757250 0.635889 -7.542215 1.839926 -22.972645 12.017183 0.215519 -45.037766 18.121117 0.279293 15.901412 -27.929636 -3.206619 7.133653 -20.695315 -26.751861 22.614164 14.193445 1.887514 31.072313 31.842739 2.462458 -23.476344 42.100865 -24.523585 -16.497208 12.597308 -11.564730 
